<svg xmlns="http://www.w3.org/2000/svg" width="128" height="128" viewBox="0 0 128 128">
  <defs>
    <linearGradient id="bg" x1="0" y1="0" x2="1" y2="1">
      <stop offset="0" stop-color="#14282b"/>
      <stop offset="1" stop-color="#071316"/>
    </linearGradient>
    <linearGradient id="gold" x1="0" y1="0" x2="0" y2="1">
      <stop offset="0" stop-color="#f5df86"/>
      <stop offset="1" stop-color="#b9852d"/>
    </linearGradient>
  </defs>
  <rect x="3" y="3" width="122" height="122" rx="18" fill="url(#bg)" stroke="#c79a42" stroke-width="5"/>
  <circle cx="92" cy="34" r="11" fill="#e8c35a" opacity=".9"/>
  <path d="M13 89 43 48l16 21 17-29 39 49Z" fill="#254b47" stroke="#46766b" stroke-width="3" stroke-linejoin="round"/>
  <path d="M16 96c22-8 74-8 96 0" fill="none" stroke="#5d8779" stroke-width="4" stroke-linecap="round"/>
  <path d="M31 70h66L83 59H45Z" fill="url(#gold)" stroke="#75531f" stroke-width="2" stroke-linejoin="round"/>
  <path d="M38 75h52v27H38Z" fill="#d9c58d" stroke="#75531f" stroke-width="3"/>
  <path d="M46 77v25m36-25v25" stroke="#8f6a31" stroke-width="4"/>
  <path d="M57 102V84h14v18" fill="#533923" stroke="#2b2118" stroke-width="2"/>
  <path d="M25 108h78" stroke="url(#gold)" stroke-width="5" stroke-linecap="round"/>
</svg>
